<svg width="1048" height="218" viewBox="0 0 1048 218" fill="none" xmlns="http://www.w3.org/2000/svg">
<path d="M6.39205 65.9105V43.0909H113.906V65.9105H73.8281V174H46.4702V65.9105H6.39205ZM133.412 174V43.0909H185.06C194.946 43.0909 203.384 44.8594 210.372 48.3963C217.404 51.8906 222.752 56.8551 226.416 63.2898C230.124 69.6818 231.978 77.2031 231.978 85.8537C231.978 94.5469 230.103 102.026 226.353 108.29C222.603 114.511 217.169 119.284 210.053 122.608C202.979 125.932 194.414 127.594 184.357 127.594H149.776V105.349H179.882C185.166 105.349 189.556 104.625 193.05 103.176C196.544 101.727 199.144 99.554 200.848 96.6562C202.595 93.7585 203.469 90.1577 203.469 85.8537C203.469 81.5071 202.595 77.8423 200.848 74.8594C199.144 71.8764 196.523 69.6179 192.986 68.0838C189.492 66.5071 185.081 65.7188 179.755 65.7188H161.09V174H133.412ZM204.108 114.426L236.644 174H206.09L174.257 114.426H204.108ZM275.901 174H246.242L291.434 43.0909H327.101L372.229 174H342.57L309.779 73.0057H308.756L275.901 174ZM274.047 122.544H344.104V144.149H274.047V122.544ZM389.786 174V43.0909H442.2C451.831 43.0909 459.864 44.5185 466.298 47.3736C472.733 50.2287 477.57 54.1918 480.808 59.2628C484.047 64.2912 485.666 70.0866 485.666 76.6491C485.666 81.7628 484.644 86.2585 482.598 90.1364C480.553 93.9716 477.74 97.125 474.161 99.5966C470.624 102.026 466.575 103.751 462.016 104.774V106.053C467.002 106.266 471.668 107.672 476.014 110.271C480.404 112.871 483.962 116.514 486.689 121.202C489.416 125.847 490.78 131.386 490.78 137.821C490.78 144.767 489.054 150.967 485.602 156.422C482.193 161.834 477.144 166.116 470.453 169.27C463.763 172.423 455.517 174 445.716 174H389.786ZM417.463 151.372H440.027C447.74 151.372 453.365 149.902 456.902 146.962C460.439 143.979 462.208 140.016 462.208 135.072C462.208 131.45 461.334 128.254 459.587 125.484C457.84 122.714 455.347 120.541 452.108 118.964C448.912 117.388 445.098 116.599 440.666 116.599H417.463V151.372ZM417.463 97.8707H437.982C441.774 97.8707 445.141 97.2102 448.081 95.8892C451.064 94.5256 453.408 92.608 455.112 90.1364C456.86 87.6648 457.733 84.7031 457.733 81.2514C457.733 76.5213 456.05 72.7074 452.683 69.8097C449.36 66.9119 444.629 65.4631 438.493 65.4631H417.463V97.8707ZM533.153 174H503.494L548.686 43.0909H584.354L629.482 174H599.823L567.031 73.0057H566.009L533.153 174ZM531.3 122.544H601.357V144.149H531.3V122.544ZM756.39 88.9219H728.393C727.881 85.2997 726.837 82.0824 725.261 79.2699C723.684 76.4148 721.66 73.9858 719.188 71.983C716.717 69.9801 713.862 68.446 710.623 67.3807C707.427 66.3153 703.954 65.7827 700.204 65.7827C693.428 65.7827 687.526 67.4659 682.498 70.8324C677.469 74.1562 673.57 79.0142 670.8 85.4062C668.031 91.7557 666.646 99.4687 666.646 108.545C666.646 117.878 668.031 125.719 670.8 132.068C673.613 138.418 677.533 143.212 682.562 146.45C687.59 149.689 693.407 151.308 700.012 151.308C703.719 151.308 707.15 150.818 710.303 149.838C713.499 148.858 716.333 147.43 718.805 145.555C721.276 143.638 723.322 141.315 724.941 138.588C726.603 135.861 727.754 132.75 728.393 129.256L756.39 129.384C755.665 135.392 753.854 141.188 750.957 146.77C748.102 152.31 744.245 157.274 739.387 161.663C734.572 166.01 728.819 169.462 722.129 172.018C715.481 174.533 707.96 175.79 699.565 175.79C687.888 175.79 677.448 173.148 668.244 167.864C659.082 162.58 651.837 154.93 646.511 144.916C641.227 134.902 638.585 122.778 638.585 108.545C638.585 94.2699 641.269 82.125 646.638 72.1108C652.008 62.0966 659.295 54.4687 668.499 49.2273C677.704 43.9432 688.059 41.3011 699.565 41.3011C707.15 41.3011 714.181 42.3665 720.658 44.4972C727.178 46.6278 732.952 49.7386 737.981 53.8295C743.009 57.8778 747.1 62.8423 750.254 68.723C753.45 74.6037 755.495 81.3366 756.39 88.9219ZM893.541 88.9219H865.544C865.033 85.2997 863.989 82.0824 862.412 79.2699C860.836 76.4148 858.811 73.9858 856.34 71.983C853.868 69.9801 851.013 68.446 847.774 67.3807C844.578 66.3153 841.105 65.7827 837.355 65.7827C830.58 65.7827 824.678 67.4659 819.649 70.8324C814.621 74.1562 810.722 79.0142 807.952 85.4062C805.182 91.7557 803.797 99.4687 803.797 108.545C803.797 117.878 805.182 125.719 807.952 132.068C810.764 138.418 814.685 143.212 819.713 146.45C824.742 149.689 830.559 151.308 837.164 151.308C840.871 151.308 844.301 150.818 847.455 149.838C850.651 148.858 853.485 147.43 855.956 145.555C858.428 143.638 860.473 141.315 862.093 138.588C863.755 135.861 864.905 132.75 865.544 129.256L893.541 129.384C892.817 135.392 891.006 141.188 888.108 146.77C885.253 152.31 881.397 157.274 876.539 161.663C871.723 166.01 865.97 169.462 859.28 172.018C852.632 174.533 845.111 175.79 836.716 175.79C825.04 175.79 814.6 173.148 805.395 167.864C796.233 162.58 788.989 154.93 783.662 144.916C778.378 134.902 775.736 122.778 775.736 108.545C775.736 94.2699 778.421 82.125 783.79 72.1108C789.159 62.0966 796.446 54.4687 805.651 49.2273C814.855 43.9432 825.211 41.3011 836.716 41.3011C844.301 41.3011 851.333 42.3665 857.81 44.4972C864.33 46.6278 870.104 49.7386 875.132 53.8295C880.161 57.8778 884.252 62.8423 887.405 68.723C890.601 74.6037 892.647 81.3366 893.541 88.9219Z" fill="black"/>
<path d="M1040.52 41.5H957.562C954.478 41.5 951.979 43.9995 951.979 47.0827C951.979 50.166 954.478 52.6654 957.562 52.6654H1040.52C1043.6 52.6654 1046.1 50.166 1046.1 47.0827C1046.1 43.9995 1043.6 41.5 1040.52 41.5Z" fill="url(#paint0_linear_24_2)"/>
<path d="M958.248 62.8158H932.4C929.037 62.8158 926.31 65.5425 926.31 68.906C926.31 72.2696 929.037 74.9962 932.4 74.9962H958.248C961.611 74.9962 964.338 72.2696 964.338 68.906C964.338 65.5425 961.611 62.8158 958.248 62.8158Z" fill="url(#paint1_linear_24_2)"/>
<path d="M1040.01 62.8158H1022.72C1019.35 62.8158 1016.63 65.5425 1016.63 68.906C1016.63 72.2696 1019.35 74.9962 1022.72 74.9962H1040.01C1043.37 74.9962 1046.1 72.2696 1046.1 68.906C1046.1 65.5425 1043.37 62.8158 1040.01 62.8158Z" fill="url(#paint2_linear_24_2)"/>
<path d="M941.135 83.1165H921.942C918.579 83.1165 915.852 85.8432 915.852 89.2068C915.852 92.5703 918.579 95.297 921.942 95.297H941.135C944.499 95.297 947.225 92.5703 947.225 89.2068C947.225 85.8432 944.499 83.1165 941.135 83.1165Z" fill="url(#paint3_linear_24_2)"/>
<path d="M936.889 104.432H918.583C915.499 104.432 913 106.932 913 110.015C913 113.098 915.499 115.598 918.583 115.598H936.889C939.972 115.598 942.472 113.098 942.472 110.015C942.472 106.932 939.972 104.432 936.889 104.432Z" fill="url(#paint4_linear_24_2)"/>
<path d="M936.889 124.733H918.583C915.499 124.733 913 127.233 913 130.316C913 133.399 915.499 135.898 918.583 135.898H936.889C939.972 135.898 942.472 133.399 942.472 130.316C942.472 127.233 939.972 124.733 936.889 124.733Z" fill="url(#paint5_linear_24_2)"/>
<path d="M936.889 145.034H918.583C915.499 145.034 913 147.533 913 150.617C913 153.7 915.499 156.199 918.583 156.199H936.889C939.972 156.199 942.472 153.7 942.472 150.617C942.472 147.533 939.972 145.034 936.889 145.034Z" fill="url(#paint6_linear_24_2)"/>
<path d="M1001.03 164.32H919.09C915.727 164.32 913 167.046 913 170.41C913 173.773 915.727 176.5 919.09 176.5H1001.03C1004.39 176.5 1007.12 173.773 1007.12 170.41C1007.12 167.046 1004.39 164.32 1001.03 164.32Z" fill="url(#paint7_linear_24_2)"/>
<path d="M1027.65 156.199H999.9C996.537 156.199 993.81 153.473 993.81 150.109C993.81 146.745 996.537 144.019 999.9 144.019H1027.65C1031.01 144.019 1033.74 146.745 1033.74 150.109C1033.74 153.473 1031.01 156.199 1027.65 156.199Z" fill="url(#paint8_linear_24_2)"/>
<path d="M1038.11 135.898H1017.96C1014.6 135.898 1011.87 133.172 1011.87 129.808C1011.87 126.445 1014.6 123.718 1017.96 123.718H1038.11C1041.47 123.718 1044.2 126.445 1044.2 129.808C1044.2 133.172 1041.47 135.898 1038.11 135.898Z" fill="url(#paint9_linear_24_2)"/>
<path d="M1042.42 104.432H1022.21C1019.13 104.432 1016.63 106.932 1016.63 110.015C1016.63 113.098 1019.13 115.598 1022.21 115.598H1042.42C1045.5 115.598 1048 113.098 1048 110.015C1048 106.932 1045.5 104.432 1042.42 104.432Z" fill="url(#paint10_linear_24_2)"/>
<path d="M1042.92 83.1165H1021.7C1018.9 83.1165 1016.63 85.3888 1016.63 88.1917C1016.63 90.9947 1018.9 93.2669 1021.7 93.2669H1042.92C1045.73 93.2669 1048 90.9947 1048 88.1917C1048 85.3888 1045.73 83.1165 1042.92 83.1165Z" fill="url(#paint11_linear_24_2)"/>
<defs>
<linearGradient id="paint0_linear_24_2" x1="980.5" y1="41.5" x2="980.5" y2="176.5" gradientUnits="userSpaceOnUse">
<stop stop-color="#1C994B"/>
<stop offset="1" stop-color="#093319"/>
</linearGradient>
<linearGradient id="paint1_linear_24_2" x1="980.5" y1="41.5" x2="980.5" y2="176.5" gradientUnits="userSpaceOnUse">
<stop stop-color="#1C994B"/>
<stop offset="1" stop-color="#093319"/>
</linearGradient>
<linearGradient id="paint2_linear_24_2" x1="980.5" y1="41.5" x2="980.5" y2="176.5" gradientUnits="userSpaceOnUse">
<stop stop-color="#1C994B"/>
<stop offset="1" stop-color="#093319"/>
</linearGradient>
<linearGradient id="paint3_linear_24_2" x1="980.5" y1="41.5" x2="980.5" y2="176.5" gradientUnits="userSpaceOnUse">
<stop stop-color="#1C994B"/>
<stop offset="1" stop-color="#093319"/>
</linearGradient>
<linearGradient id="paint4_linear_24_2" x1="980.5" y1="41.5" x2="980.5" y2="176.5" gradientUnits="userSpaceOnUse">
<stop stop-color="#1C994B"/>
<stop offset="1" stop-color="#093319"/>
</linearGradient>
<linearGradient id="paint5_linear_24_2" x1="980.5" y1="41.5" x2="980.5" y2="176.5" gradientUnits="userSpaceOnUse">
<stop stop-color="#1C994B"/>
<stop offset="1" stop-color="#093319"/>
</linearGradient>
<linearGradient id="paint6_linear_24_2" x1="980.5" y1="41.5" x2="980.5" y2="176.5" gradientUnits="userSpaceOnUse">
<stop stop-color="#1C994B"/>
<stop offset="1" stop-color="#093319"/>
</linearGradient>
<linearGradient id="paint7_linear_24_2" x1="980.5" y1="41.5" x2="980.5" y2="176.5" gradientUnits="userSpaceOnUse">
<stop stop-color="#1C994B"/>
<stop offset="1" stop-color="#093319"/>
</linearGradient>
<linearGradient id="paint8_linear_24_2" x1="980.5" y1="41.5" x2="980.5" y2="176.5" gradientUnits="userSpaceOnUse">
<stop stop-color="#1C994B"/>
<stop offset="1" stop-color="#093319"/>
</linearGradient>
<linearGradient id="paint9_linear_24_2" x1="980.5" y1="41.5" x2="980.5" y2="176.5" gradientUnits="userSpaceOnUse">
<stop stop-color="#1C994B"/>
<stop offset="1" stop-color="#093319"/>
</linearGradient>
<linearGradient id="paint10_linear_24_2" x1="980.5" y1="41.5" x2="980.5" y2="176.5" gradientUnits="userSpaceOnUse">
<stop stop-color="#1C994B"/>
<stop offset="1" stop-color="#093319"/>
</linearGradient>
<linearGradient id="paint11_linear_24_2" x1="980.5" y1="41.5" x2="980.5" y2="176.5" gradientUnits="userSpaceOnUse">
<stop stop-color="#1C994B"/>
<stop offset="1" stop-color="#093319"/>
</linearGradient>
</defs>
</svg>
