<svg width="346" height="400" viewBox="0 0 346 400" fill="none" xmlns="http://www.w3.org/2000/svg">
<path d="M128 347L73 314C73 314 76.5507 309.341 79 306.5C81.2558 303.884 82.5 302.686 85 300C88.1059 296.663 89.8266 294.772 93 291.5C96.268 288.13 98.1155 286.253 101.5 283C105.884 278.786 108.004 276.596 112.5 272.5C116.792 268.59 119.547 266.225 124 262.5C128.164 259.017 130.704 256.819 135 253.5C139.296 250.181 141.605 248.687 146 245.5C150.209 242.447 156 238.5 156 238.5L163 234L168.5 230.5L182 223L192.5 217.5C192.5 217.5 199.667 213.869 204 212C208.262 210.161 210.68 209.196 215 207.5C219.659 205.671 222.25 204.578 227 203C231.632 201.461 234.295 200.803 239 199.5C245.025 197.832 248.419 196.952 254.5 195.5C259.753 194.246 262.697 193.521 268 192.5C272.665 191.602 275.306 191.231 280 190.5C285.457 189.651 288.52 189.185 294 188.5C299.456 187.818 302.524 187.501 308 187C313.071 186.536 321 186 321 186V207.5C321 207.5 313.04 209.18 308 210.5C303.278 211.737 300.656 212.532 296 214C290.287 215.801 287.12 216.927 281.5 219C275.989 221.033 272.934 222.269 267.5 224.5C261.997 226.759 258.841 227.883 253.5 230.5L252.902 230.793C247.869 233.259 245.051 234.639 240 237.5C234.9 240.388 231.973 242.399 227 245.5C221.393 248.996 218.413 251.211 213 255C208.072 258.45 205.251 260.311 200.5 264C195.465 267.91 192.744 270.241 188 274.5C183.581 278.467 181.248 280.85 177 285C172.654 289.245 170.142 291.556 166 296C161.942 300.354 159.815 302.932 156 307.5L155.597 307.982C151.838 312.484 149.606 315.156 146 320C142.313 324.953 140.43 327.865 137 333C133.39 338.405 128 347 128 347Z" fill="url(#paint0_linear_28_7)"/>
<path d="M145.634 51V41L150.134 44C152.477 45.5621 153.814 46.4036 156.134 48C158.902 49.9044 160.41 51.0344 163.134 53C165.288 54.554 166.505 55.4118 168.634 57C171.201 58.9151 174.135 60.997 176.634 63C179.014 64.9076 179.545 65.2774 181.634 67.5C183.935 69.948 185.034 71.5464 186.634 74.5C188.137 77.2735 188.346 78.4456 189.134 81.5C189.969 84.7363 189.923 86.6643 190.134 90C190.38 93.8975 190.134 96.0948 190.134 100V111V122C190.134 122 185.297 118.54 181.134 115.5C177.853 113.104 175.453 111.343 172.134 109C168.815 106.657 167.28 105.572 164.134 103C161.46 100.813 158.504 98.5135 156.134 96C154.042 93.7808 152.835 92.5319 151.134 90C149.526 87.6068 148.736 86.1641 147.634 83.5C146.637 81.0893 146.563 80.637 146.156 78.1373L146.134 78C145.634 74.9296 145.634 72.148 145.634 69.04V69V60V51Z" fill="#46B64D"/>
<path d="M209.119 173.629C205.136 176.249 198.837 180.208 198.837 180.208L199.377 167.219L199.751 158.227L200.291 145.238C200.428 141.922 200.279 142.051 200.56 138.744C200.777 136.207 201.396 130.769 201.996 128.294C202.475 126.313 202.468 126.257 203.161 124.339C204 122.017 204.233 121.621 205.367 119.427C206.412 117.404 207.217 116.386 208.572 114.556C209.734 112.987 210.402 112.11 211.735 110.684C213.244 109.07 214.208 108.276 215.898 106.853C218.021 105.066 219.327 104.206 221.58 102.586C223.958 100.875 225.878 99.5324 228.282 97.8598C230.911 96.031 231.835 95.4417 234.464 93.6129C236.868 91.9403 238.214 90.9982 240.646 89.3659C243.435 87.4937 245.046 86.5152 247.847 84.6609C250.876 82.6562 252.54 81.4819 255.569 79.4771C258.37 77.6229 263.291 74.2933 263.291 74.2933L262.917 83.2856L262.419 95.2752L262.045 104.267C261.916 107.389 261.891 109.642 261.692 112.76C261.443 116.662 261.513 118.89 260.777 122.731C260.403 124.686 260.166 125.785 259.571 127.685C259.017 129.453 258.57 130.906 257.864 132.618C257.063 134.563 256.663 135.173 255.679 137.031C254.739 138.808 254.165 139.789 252.994 141.424C251.698 143.233 251.367 143.684 249.831 145.296C248.116 147.095 246.549 148.507 244.628 150.084C242.152 152.115 241.054 153.001 238.425 154.83C236.021 156.503 234.036 157.698 231.224 159.535C228.411 161.373 225.814 162.861 223.002 164.698C220.19 166.536 218.602 167.549 215.8 169.403C212.772 171.408 212.154 171.634 209.119 173.629Z" fill="#1C994B"/>
<path d="M162 368L153.5 362.5C153.5 362.5 156.662 355.695 159 351.5C160.663 348.517 161.743 346.929 163.5 344C165.257 341.071 166.174 339.387 168 336.5C169.881 333.525 170.999 331.896 173 329C174.909 326.236 176.047 324.734 178 322C179.953 319.266 181 317.699 183 315C185.651 311.423 187.162 309.431 190 306C192.646 302.801 197 298 197 298C197 298 201.82 292.766 205 289.5C207.504 286.928 208.91 285.486 211.5 283C213.935 280.662 215.367 279.372 217.825 277.157L218 277C221.084 274.221 222.861 272.717 226 270C228.723 267.644 230.194 266.257 233 264C236.043 261.552 237.814 260.259 241 258C244.446 255.556 246.433 254.262 250 252C253.846 249.561 256.054 248.274 260 246C263.484 243.993 265.445 242.879 269 241C272.86 238.96 275.035 237.827 279 236C283.611 233.875 286.268 232.839 291 231C295.261 229.345 297.681 228.498 302 227C305.5 225.786 307.469 225.121 311 224C314.886 222.767 321 221 321 221V254.5C321 254.5 315.84 258.792 312.5 261.5C309.587 263.862 308.399 264.62 305.5 267L305.357 267.117C301.471 270.307 298.72 272.565 295 276C291.348 279.372 289.468 281.439 286 285C282.435 288.661 280.317 290.612 277 294.5C274.11 297.887 272.707 299.965 270 303.5C266.439 308.151 261 315.5 261 315.5L254.5 325.5L243 332L226.5 342L217 348L208.5 353L202 357L195.5 361L189 365L183 368.5L180.5 370L177 372C177 372 174.38 373.566 171.5 373C168.243 372.36 162 368 162 368Z" fill="url(#paint1_linear_28_7)"/>
<path d="M321.5 281.5C322.497 278.334 321.5 273 321.5 273C321.5 273 315.577 278.35 312 282C309.389 284.664 307.94 286.178 305.5 289C302.408 292.575 296 301 296 301C296 301 301.993 297.619 305 296C311.5 292.5 315 290 315 290C315 290 317.276 288.594 319 286.5C320.11 285.152 320.976 283.166 321.5 281.5Z" fill="#146032"/>
<path d="M25.0001 282C23.142 277.698 24.5001 270 24.5001 270C24.5001 270 29.4616 273.232 32.5001 275.5C35.7262 277.908 37.4256 279.402 40.5001 282C43.8812 284.858 45.7259 286.521 49.0001 289.5C52.1674 292.382 53.926 294.019 57.0001 297C59.7752 299.692 64.0001 304 64.0001 304L61.5001 307C61.5001 307 56.1335 303.938 53.0001 302C49.4968 299.834 48.0333 299.117 44.5001 297C41.1966 295.02 39.3389 293.919 36.0001 292C32.8924 290.214 30.5433 289.026 28.0001 286.5C26.309 284.82 25.9451 284.188 25.0001 282Z" fill="#146032"/>
<path d="M25 254V221.5C25 221.5 31.4097 222.982 35.5 224C40.0039 225.121 42.5491 225.684 47 227C51.7371 228.4 54.3701 229.278 59 231C63.3502 232.618 65.7538 233.626 70 235.5C74.9538 237.686 77.6933 239.007 82.5 241.5C87.4665 244.076 90.1756 245.667 95 248.5C100.747 251.875 109.5 257.5 109.5 257.5C109.5 257.5 105.797 260.803 103.5 263C101.105 265.291 99.8431 266.657 97.5 269C94.7663 271.734 93.1817 273.215 90.5 276C87.9165 278.683 86.5111 280.232 84.0122 282.986L84 283C81.0256 286.279 76.5 291.5 76.5 291.5C76.5 291.5 70.1821 285.618 66 282C62.5398 279.007 60.6322 277.282 57 274.5C53.2155 271.601 50.9355 270.19 47 267.5C42.9313 264.719 40.6961 263.085 36.5 260.5C32.1076 257.794 25 254 25 254Z" fill="#147338"/>
<path d="M25 208V186.5C25 186.5 31.4 186.794 35.5 187C39.2104 187.186 41.294 187.239 45 187.5C49.3029 187.803 51.717 187.988 56 188.5C61.1002 189.11 62.9256 189.203 68 190C72.8838 190.767 76.647 191.557 81.5 192.5C86.6147 193.493 89.4475 194.228 94.5 195.5C100.196 196.935 102.387 197.267 108 199C112.13 200.275 114.918 201.079 119 202.5C123.317 204.002 126.747 205.325 131 207L131.322 207.127C134.81 208.501 135.919 208.937 139.5 210.5C143.825 212.387 146.761 213.927 151 216C155.158 218.034 161.5 221.5 161.5 221.5C161.5 221.5 154.448 225.696 150 228.5C146.655 230.609 144.743 231.738 141.5 234C138.297 236.234 136.133 237.669 133 240C129.303 242.751 124 247 124 247C124 247 116.158 241.988 111 239C107.521 236.985 105.575 235.839 102 234C98.3495 232.122 96.5147 231.062 93 229.5C89.4853 227.938 86.5147 226.562 83 225C83 225 78.6763 223.241 75.5 222C71.474 220.427 69.09 219.398 65 218C61.0849 216.662 58.9645 216.184 55 215C51.1429 213.848 47.9052 212.976 44 212C40.0948 211.024 38.9275 210.883 35 210C31.1143 209.127 25 208 25 208Z" fill="#1C994B"/>
<path d="M16.5058 106.472C11.1725 106.458 5.83918 106.444 0.505863 106.429C0.454745 125.505 0.403628 144.581 0.35251 163.656C0.240118 205.598 0.127725 247.539 0.0153322 289.481C-0.0502748 295.731 3.42825 301.86 8.82747 305.008C60.4004 335.621 111.973 366.233 163.546 396.846C169.074 400.192 176.412 400.188 181.936 396.838C232.942 366.498 283.948 336.158 334.955 305.818C335.699 305.376 336.443 304.933 337.187 304.491C342.578 301.34 346.05 295.216 345.985 288.972C345.821 228.134 345.658 167.295 345.494 106.456C345.529 100.117 341.911 93.9265 336.37 90.8453C284.619 61.513 232.868 32.1807 181.117 2.84843C175.717 -0.268227 168.69 -0.253874 163.302 2.88484C125.58 24.4696 87.8588 46.0543 50.1373 67.639C36.6135 75.3775 23.0898 83.116 9.56606 90.8544C4.06017 93.9464 0.472015 100.115 0.505863 106.429C5.83918 106.444 11.1725 106.458 16.5058 106.472C16.501 105.772 16.9016 105.083 17.5125 104.742C31.0362 97.0031 44.56 89.2647 58.0837 81.5262C95.8052 59.9415 133.527 38.3568 171.248 16.772C171.845 16.4232 172.629 16.4216 173.228 16.768C224.979 46.1003 276.73 75.4326 328.48 104.765C329.095 105.106 329.499 105.797 329.494 106.499C329.658 167.338 329.821 228.177 329.985 289.015C329.993 289.708 329.605 290.391 329.007 290.74C328.263 291.182 327.519 291.625 326.775 292.067C275.769 322.407 224.763 352.747 173.756 383.087C173.145 383.459 172.325 383.46 171.713 383.088C120.14 352.475 68.5673 321.862 16.9944 291.249C16.3953 290.901 16.007 290.217 16.0153 289.524C16.1277 247.582 16.2401 205.641 16.3525 163.699C16.4036 144.623 16.4547 125.548 16.5058 106.472ZM0.505863 106.429L16.5058 106.472L0.505863 106.429Z" fill="url(#paint2_linear_28_7)"/>
<path d="M94.018 102.5V68.5C94.018 68.5 102.366 74.1327 107.018 77.5C111.542 80.7745 112.966 81.764 117.518 85C122.903 88.8285 125.645 90.6541 131.018 94.5C135.781 97.9097 139.416 100.376 144.018 104C148.595 107.604 150.914 109.366 155.018 113.5C158.435 116.942 160.208 119.047 163.018 123L163.052 123.048C165.922 127.085 167.583 129.422 169.518 134C171.624 138.983 172.132 142.084 173 147.393L173.018 147.5C173.84 152.525 173.8 155.413 174.018 160.5C174.294 166.938 174.018 170.556 174.018 177V195V213C174.018 213 166.397 207.519 161.518 204C158.002 201.464 156.039 200.03 152.518 197.5C148.426 194.56 146.11 192.94 142.018 190C138.497 187.47 136.533 186.038 133.018 183.5C129.503 180.962 127.45 179.649 124.018 177C120.614 174.373 118.654 172.942 115.518 170C112.395 167.07 110.73 165.314 108.018 162C104.999 158.311 103.229 156.223 101.018 152C98.9831 148.112 98.1776 145.732 97.018 141.5C95.7115 136.732 95.6078 133.908 95.018 129C93.7823 118.718 94.018 102.5 94.018 102.5Z" fill="#197F41"/>
<g style="mix-blend-mode:overlay">
<path d="M253.765 91.9129C257.561 85.207 263.227 74.2907 263.227 74.2907C263.227 74.2907 257.93 77.8932 250.595 82.7734C248 84.5 242 88.5 237.566 91.5L229.5 97C229.5 97 223 101.5 217 106C214.457 107.907 213.131 109.142 211 111.5C208.869 113.858 206.268 117.5 205 120C202.577 124.777 202.384 126.58 201.5 131C200.806 134.468 200.5 140 200.5 140L200 153L199.5 164.5L199.2 172.105L198.901 179.71L211.052 161.699C211.052 161.699 216.602 153.089 220.147 147.565C223.077 142.999 227.639 135.866 227.639 135.866C227.639 135.866 231.906 129.538 234.07 125.624C236.235 121.711 238.255 118.735 240.522 114.883C243.186 110.354 244.625 108.234 247.192 103.65C249.759 99.0664 251.176 96.4848 253.765 91.9129Z" fill="url(#paint3_linear_28_7)"/>
</g>
<g style="mix-blend-mode:overlay">
<path d="M118.5 104C107.583 88.1093 94 68.5 94 68.5V97V111.5C94 120 94.1048 119.131 94.5 124C94.786 127.525 94.9715 129.503 95.5 133L95.5378 133.25C95.9892 136.239 96.2549 137.998 97 141C97.7883 144.177 98.2167 145.989 99.5 149C100.905 152.298 101.998 154.026 104 157C106.555 160.795 108.364 162.669 111.5 166C117.293 172.153 121.309 174.838 128 180C133.319 184.104 142 190 142 190L158 201.5L174 213C172.78 209.725 168.934 199.125 166 192C163.735 186.5 162.38 183.451 160 178C157.691 172.713 156.422 169.736 154 164.5C151.91 159.982 150.732 157.45 148.5 153C146.424 148.862 145.222 146.561 143 142.5C140.733 138.357 139.455 136.034 137 132C134.213 127.42 132.486 124.953 129.5 120.5C126.061 115.372 121.997 109.089 118.5 104Z" fill="url(#paint4_linear_28_7)"/>
</g>
<g style="mix-blend-mode:overlay">
<path d="M190 122C172.426 89.977 163.208 73.023 145.634 41V53.5V60.5V68C145.634 68 145.443 71.9688 145.634 74.5L145.643 74.624C145.876 77.7089 146.013 79.5321 147 82.5C148.437 86.8215 150.204 88.9051 153 92.5C154.105 93.921 156 96 156 96C156 96 158.998 98.7995 161 100.5C163.577 102.689 165.13 103.852 167.774 105.831L168 106C170.689 108.014 172.273 109.038 175 111C179.312 114.102 181.738 115.83 186 119C187.567 120.165 190 122 190 122Z" fill="url(#paint5_linear_28_7)"/>
</g>
<path d="M186.5 144.021C185.503 144.066 184 144.021 184 144.021V210L189 206.418V144.021C189 144.021 187.515 143.974 186.5 144.021Z" fill="#197F41"/>
<path d="M189 201L266 146.5L268.5 150L189 206.413V201Z" fill="#197F41"/>
<path d="M251.722 178.316L260.275 172L262.5 175L253 182H223.237L227.383 178.316H251.722Z" fill="#197F41"/>
<path d="M191.238 143.096C188.7 145.635 184.584 145.635 182.046 143.096C179.507 140.558 179.507 136.442 182.046 133.904C184.584 131.365 188.7 131.365 191.238 133.904C193.777 136.442 193.777 140.558 191.238 143.096Z" stroke="#197F41" stroke-width="3"/>
<path d="M269.243 174.243C266.899 176.586 263.101 176.586 260.757 174.243C258.414 171.899 258.414 168.101 260.757 165.757C263.101 163.414 266.899 163.414 269.243 165.757C271.586 168.101 271.586 171.899 269.243 174.243Z" stroke="#197F41" stroke-width="3"/>
<path d="M277.096 148.096C274.558 150.635 270.442 150.635 267.904 148.096C265.365 145.558 265.365 141.442 267.904 138.904C270.442 136.365 274.558 136.365 277.096 138.904C279.635 141.442 279.635 145.558 277.096 148.096Z" stroke="#197F41" stroke-width="3"/>
<defs>
<linearGradient id="paint0_linear_28_7" x1="227.171" y1="186" x2="166.829" y2="347" gradientUnits="userSpaceOnUse">
<stop stop-color="#46B64D"/>
<stop offset="0.177885" stop-color="#1C994B"/>
<stop offset="0.615385" stop-color="#147338"/>
</linearGradient>
<linearGradient id="paint1_linear_28_7" x1="237.25" y1="221" x2="237.25" y2="372.166" gradientUnits="userSpaceOnUse">
<stop stop-color="#1C994B"/>
<stop offset="0.480769" stop-color="#147338"/>
<stop offset="0.9999" stop-color="#146032"/>
</linearGradient>
<linearGradient id="paint2_linear_28_7" x1="273.641" y1="7" x2="76.4203" y2="395.064" gradientUnits="userSpaceOnUse">
<stop offset="0.0669654" stop-color="#46B64D"/>
<stop offset="0.350369" stop-color="#20A354"/>
<stop offset="0.899184" stop-color="#146032"/>
</linearGradient>
<linearGradient id="paint3_linear_28_7" x1="233.431" y1="73.5527" x2="228.966" y2="180.96" gradientUnits="userSpaceOnUse">
<stop stop-color="#1B1464" stop-opacity="0"/>
<stop offset="1" stop-color="#1B1464"/>
</linearGradient>
<linearGradient id="paint4_linear_28_7" x1="133.598" y1="66.5" x2="133.598" y2="214" gradientUnits="userSpaceOnUse">
<stop stop-color="#1B1464" stop-opacity="0"/>
<stop offset="1" stop-color="#585292"/>
</linearGradient>
<linearGradient id="paint5_linear_28_7" x1="166.817" y1="41" x2="166.817" y2="123" gradientUnits="userSpaceOnUse">
<stop stop-color="#1B1464" stop-opacity="0"/>
<stop offset="1" stop-color="#1B1464"/>
</linearGradient>
</defs>
</svg>
